<svg xmlns="http://www.w3.org/2000/svg" height="1024" preserveAspectRatio="none" style="display: block;" viewBox="0 0 2048 2048" width="1024"><path d="M 0 0 L 2048 0 L 2048 2048 L 0 2048 L 0 0 z" fill="rgb(225,225,225)" transform="translate(0,0)"></path><path d="M 1084.03 829.103 C 1093.79 828.351 1100.92 829.078 1109.18 835.159 C 1118.95 842.243 1123.3 854.646 1120.09 866.28 C 1117.41 876.255 1103.08 897.555 1097.2 906.978 C 1087.97 921.643 1078.91 936.42 1070.04 951.305 C 1041.57 999.135 963.331 1155.23 973.428 1205.18 C 974.028 1208.15 975.518 1212.32 978.252 1213.89 C 986.052 1218.38 1001.09 1209.01 1007.79 1204.65 C 1035.93 1186.34 1063.89 1160.05 1083.95 1132.9 C 1094.14 1119.11 1101.32 1104.1 1109.62 1089.19 C 1123.7 1063.89 1139.58 1038.51 1159.01 1016.96 C 1165.94 1009.29 1174.52 1000.2 1184.74 997.288 C 1190.55 995.633 1196.64 996.228 1201.81 999.444 C 1246.96 1027.5 1110.57 1168.52 1119.54 1206.29 C 1120.11 1208.7 1121.18 1210.85 1123.5 1212.01 C 1128.94 1214.71 1136.83 1212.72 1142.42 1211.16 C 1191.28 1197.51 1258.52 1117.91 1284.67 1074.4 C 1299.7 1049.38 1310.51 1022.31 1325.01 997.037 C 1315.49 998.784 1229.51 1021.47 1255.39 977.353 C 1266.58 958.276 1326.38 949.204 1351.27 945.406 C 1364.12 918.635 1404.73 856.235 1432.24 853.172 C 1509.9 844.528 1418.8 928.713 1411 938.59 C 1436.06 936.308 1491.32 919.671 1512.4 931.574 C 1516.23 933.738 1519.21 937.253 1520.11 941.644 C 1520.76 944.832 1519.8 947.96 1517.88 950.507 C 1506.89 965.161 1407.11 982.507 1386.17 985.54 C 1380.55 998.885 1369.36 1017.72 1362.46 1031.44 C 1339.65 1076.84 1317.07 1126.63 1315 1178.09 C 1314.29 1195.77 1317.77 1215.87 1339.55 1213.45 C 1351.15 1212.16 1364.17 1207.99 1374.1 1201.95 C 1411.81 1178.98 1446.89 1149.01 1477.73 1117.55 C 1482.04 1113.12 1491 1096.83 1494.97 1090.73 C 1502.18 1079.65 1508.52 1071.14 1517.22 1061.27 C 1544.42 1030.41 1588.25 989.922 1631.08 986.772 C 1657.78 984.809 1671.49 997.276 1689.76 1013.23 C 1694.35 1009.31 1698.12 1005.92 1704.26 1004.56 C 1709.62 1003.35 1715.23 1004.38 1719.82 1007.4 C 1725.57 1011.22 1729.12 1017.76 1730.33 1024.45 C 1733.33 1041.07 1718.68 1054.75 1709.75 1067.11 C 1692.95 1090.35 1641.06 1178.04 1648.01 1204.95 C 1648.62 1207.3 1649.75 1209.12 1652.07 1210.1 C 1658.83 1212.95 1673.88 1203.89 1679.8 1200.37 C 1712.78 1180.75 1746.4 1147.93 1768.75 1116.74 C 1793.65 1081.99 1813.36 1016.02 1856.88 1001.12 C 1863.78 998.753 1873 997.431 1879.77 1000.92 C 1883.75 1002.96 1886.25 1006.66 1887.38 1010.92 C 1893.41 1033.68 1864.34 1073.41 1853.22 1092.98 C 1840.15 1115.99 1810.5 1164.53 1803.71 1187.77 C 1802.14 1193.15 1801.12 1198.96 1802.85 1204.44 C 1803.92 1207.81 1806.4 1211.44 1809.72 1212.86 C 1832.97 1222.85 1897.34 1157.66 1912.96 1140.34 C 1919.22 1133.4 1936.84 1106.95 1943.56 1104.79 C 1945.88 1104.04 1948.39 1104.33 1950.43 1105.71 C 1952.72 1107.26 1954.07 1109.74 1954.63 1112.39 C 1957.94 1128.03 1940.78 1152.32 1932.59 1164.49 C 1907.76 1200.82 1851.8 1253.28 1804.38 1252.9 C 1788.75 1252.78 1770.6 1247.24 1759.64 1235.54 C 1745.52 1220.45 1746.6 1203.97 1746.89 1185.02 C 1729.39 1202.63 1715.2 1216.98 1695.05 1232.97 C 1670.4 1252.52 1632.53 1268.62 1608.9 1236.99 C 1596.43 1220.31 1600.48 1192.69 1604.45 1173.15 C 1574.85 1204.7 1512.53 1291.24 1464.77 1237.26 C 1452.05 1222.89 1455.34 1193.6 1458.22 1175.9 C 1418.87 1206.95 1382.17 1250.54 1327.37 1254.21 C 1308.31 1255.48 1287.28 1251.21 1273.12 1237.69 C 1252.73 1218.23 1252.23 1194 1251.82 1167.98 C 1219.03 1208.05 1165.06 1260.46 1109.27 1253.42 C 1072.67 1248.8 1066.59 1223.07 1070.96 1191.14 C 1059.61 1202.95 1047.45 1213.97 1034.57 1224.09 C 1014.45 1239.81 985.533 1256.57 958.882 1252.98 C 911.095 1246.55 926.785 1181.01 931.092 1148.84 C 905.488 1182.08 858.547 1248.14 815.275 1254.93 C 775.586 1261.15 767.113 1217.73 764.622 1187.65 C 764.174 1188.19 763.721 1188.73 763.263 1189.26 C 740.636 1215.61 705.137 1248.52 668.621 1250.98 C 623.297 1254.04 620.539 1210.02 619.824 1177.59 C 596.558 1216.81 567.522 1256.36 516.371 1250.11 C 469.011 1244.33 465.39 1198.69 471.717 1161.27 C 474.658 1143.88 479.878 1120.9 486.762 1104.46 C 503.407 1064.7 526.28 1022.04 559.161 993.559 C 566.847 988.03 574.201 986.883 583.161 987.886 C 594.764 989.184 613.102 1001.77 606.932 1015.24 C 602.157 1025.66 589.45 1036.79 582.093 1046.72 C 556.318 1081.52 534.063 1120.78 524.41 1163.32 C 522.567 1172.5 521.723 1183.84 527.615 1191.83 C 535.325 1202.28 554.664 1204.89 564.938 1196.9 C 569.355 1192.92 575.001 1187.16 578.15 1182.16 C 606.043 1137.87 634.856 1094.46 664.457 1051.29 C 669.979 1043.23 674.634 1032.92 679.772 1024.44 C 685.241 1015.41 690.086 1006.15 698.984 999.807 C 709.039 992.555 719.691 998.887 725.114 1008.51 C 729.323 1015.98 733.508 1030.8 731.052 1039.97 C 721.194 1076.76 699.634 1110.88 684.822 1145.93 C 679.767 1157.9 674.986 1167.19 671.519 1179.82 C 668.411 1185.15 666.6 1212.2 679.1 1209.39 C 717.186 1200.85 751.738 1157 775.521 1127.44 C 782.304 1119 785.945 1107.61 790.931 1099.45 C 797.954 1087.96 803.703 1079.33 811.325 1069.33 C 825.848 1050.33 842.777 1033.3 861.687 1018.66 C 886.784 999.487 931.487 972.375 963.567 991.95 C 968.617 995.032 971.887 999.658 975.367 1004.32 C 1001.49 958.32 1025.53 910.901 1052.84 865.519 C 1060.97 851.997 1069.43 836.281 1084.03 829.103 z" fill="rgb(0,0,0)" transform="translate(0,0)"></path><path d="M 1639.71 1031.13 C 1665.14 1029.09 1669.94 1042.87 1655.28 1062.06 C 1617.55 1111.47 1572.4 1170.64 1520.73 1206.1 C 1459.61 1239.97 1555.15 1058.77 1639.71 1031.13 z" fill="rgb(225,225,225)" transform="translate(0,0)"></path><path d="M 949.132 1026.15 C 953.157 1025.57 956.828 1025.03 960.509 1026.72 C 962.106 1029.62 962.102 1031.39 961.01 1034.81 C 957.812 1044.83 950.014 1056.92 944.987 1066.02 C 923.326 1105.21 861.825 1191.2 823.721 1213.47 C 817.642 1214.55 812.047 1211.49 811.715 1205.48 C 808.044 1138.82 888.015 1041.95 949.132 1026.15 z" fill="rgb(225,225,225)" transform="translate(0,0)"></path><path d="M 275.091 790.776 C 276.399 790.637 279.082 790.76 280.118 791.429 C 340.733 830.589 396.528 833.622 467.192 833.138 C 470.132 996.504 462.912 1193.68 274.938 1253.33 C 267.787 1255.81 254.882 1250.51 248.016 1247.68 C 216.331 1234.62 183.434 1213.64 160.439 1188.17 C 79.2708 1098.24 80.6174 946.315 85.4243 833.163 C 140.683 832.669 188.273 831.842 240.617 808.989 C 251.898 804.063 264.173 796.869 275.091 790.776 z" fill="rgb(0,0,0)" transform="translate(0,0)"></path><path d="M 277.872 848.921 C 285.92 851.089 307.444 862.534 317.591 866.087 C 351.511 877.964 381.321 881.3 416.53 884.049 C 418.196 964.767 410.961 1046.72 369.929 1118.25 C 362.615 1101.83 356.062 1084.99 349.084 1068.42 C 342.641 1053.12 335.668 1038 329.672 1022.52 C 322.282 1003.44 285.16 892.315 278.678 884.852 C 269.843 880.215 237.672 881.719 226.999 883.27 C 220.099 914.168 213.359 930.479 203.327 960.062 L 166.28 1068.21 C 161 1083.55 150.085 1111.05 146.914 1125.47 C 164.407 1125.59 181.9 1125.44 199.388 1125.01 C 203.2 1113.25 208.252 1095.96 212.757 1084.9 C 241.478 1085.24 270.201 1085.26 298.923 1084.97 L 311.844 1122.06 C 330.32 1121.85 348.799 1122.01 367.268 1122.56 C 343.025 1159.4 312.199 1185.77 270.683 1200.72 C 236.605 1190.21 207.458 1167.76 188.585 1137.5 C 168.735 1136.26 146.085 1136.25 126.033 1135.96 C 127.564 1131.22 129.591 1126.63 131.688 1122.11 C 140.298 1103.56 146.936 1084.32 155.104 1065.58 C 134.976 1000.47 136.047 948.876 137.027 881.926 C 186.803 880.313 232.746 870.616 277.872 848.921 z" fill="rgb(225,225,225)" transform="translate(0,0)"></path><path d="M 255.231 959.728 C 262.977 985.319 271.548 1010.65 280.93 1035.69 C 272.93 1035.75 264.709 1035.57 256.69 1035.5 L 231.138 1035.26 C 239.493 1012.09 247.648 983.631 255.231 959.728 z" fill="rgb(225,225,225)" transform="translate(0,0)"></path><path d="M 1259.9 852.119 C 1272.81 852.124 1281.49 859.926 1281.74 873.189 C 1282.3 902.025 1260.78 929.931 1240.24 948.15 C 1231.14 956.219 1220.72 960.611 1208.7 961.3 C 1176.41 954.975 1183.87 923.724 1196.26 903.027 C 1209.73 880.516 1234.16 858.843 1259.9 852.119 z" fill="rgb(0,0,0)" transform="translate(0,0)"></path><path d="M 1942.79 854.269 C 1991.37 858.558 1947.57 959.821 1891.35 959.199 C 1860.54 948.819 1867.15 915.825 1882.7 895.598 C 1895.82 878.517 1921.02 857.603 1942.79 854.269 z" fill="rgb(0,0,0)" transform="translate(0,0)"></path><metadata></metadata><metadata></metadata></svg>